{"title":"The.Wanderers.1979.1080p.BDRip.x264.Iou1","uid":11174694,"size":1929811482,"categoryP":"video","categoryS":"hd___movies","magnet":"?xt=urn:btih:2424f665c6182e06351204abbe74696a698f8224&amp;dn=The.Wanderers.1979.1080p.BDRip.x264.Iou1&amp;tr=udp%3A%2F%2Ftracker.openbittorrent.com%3A80&amp;tr=udp%3A%2F%2Fopen.demonii.com%3A1337&amp;tr=udp%3A%2F%2Ftracker.coppersurfer.tk%3A6969&amp;tr=udp%3A%2F%2Fexodus.desync.com%3A6969","seeders":2,"leechers":0,"uploader":"jaybee211","files":-1,"time":1412767451,"description":"Genre                                    : Comedy/Drama\nFormat                                   : MPEG-4\nFormat profile                           : Base Media / Version 2\nCodec ID                                 : mp42\nFile size                                : 1.80 GiB\nDuration                                 : 1h 57mn\nOverall bit rate mode                    : Variable\nOverall bit rate                         : 2 197 Kbps\n\nVideo\nID                                       : 1\nFormat                                   : AVC\nFormat/Info                              : Advanced Video Codec\nFormat profile                           : &lt;a class=&quot;__cf_email__&quot; href=&quot;/cdn-cgi/l/email-protection&quot; data-cfemail=&quot;165e7f717e565a233826&quot;&gt;[email&amp;#160;protected]&lt;/a&gt;&lt;script cf-hash='f9e31' type=&quot;text/javascript&quot;&gt;\n/* &lt;![CDATA[ */!function(){try{var t=&quot;currentScript&quot;in document?document.currentScript:function(){for(var t=document.getElementsByTagName(&quot;script&quot;),e=t.length;e--;)if(t[e].getAttribute(&quot;cf-hash&quot;))return t[e]}();if(t&amp;&amp;t.previousSibling){var e,r,n,i,c=t.previousSibling,a=c.getAttribute(&quot;data-cfemail&quot;);if(a){for(e=&quot;&quot;,r=parseInt(a.substr(0,2),16),n=2;a.length-n;n+=2)i=parseInt(a.substr(n,2),16)^r,e+=String.fromCharCode(i);e=document.createTextNode(e),c.parentNode.replaceChild(e,c)}}}catch(u){}}();/* ]]&gt; */&lt;/script&gt;\nFormat settings, CABAC                   : Yes\nFormat settings, ReFrames                : 5 frames\nCodec ID                                 : avc1\nCodec ID/Info                            : Advanced Video Coding\nDuration                                 : 1h 57mn\nBit rate                                 : 2 000 Kbps\nWidth                                    : 1 920 pixels\nHeight                                   : 1 040 pixels\nDisplay aspect ratio                     : 1.85:1\nFrame rate mode                          : Variable\nFrame rate                               : 23.976 fps\nMinimum frame rate                       : 23.256 fps\nMaximum frame rate                       : 25.000 fps\nColor space                              : YUV\nChroma subsampling                       : 4:2:0\nBit depth                                : 8 bits\nScan type                                : Progressive\nBits/(Pixel*Frame)                       : 0.042\nStream size                              : 1.63 GiB (91%)\n\nAudio\nID                                       : 2\nFormat                                   : AAC\nFormat/Info                              : Advanced Audio Codec\nFormat profile                           : LC\nCodec ID                                 : 40\nDuration                                 : 1h 57mn\nBit rate mode                            : Variable\nBit rate                                 : 192 Kbps\nMaximum bit rate                         : 326 Kbps\nChannel(s)                               : 6 channels\nChannel positions                        : Front: L C R, Side: L R, LFE\nSampling rate                            : 48.0 KHz\nCompression mode                         : Lossy\nStream size                              : 161 MiB (9%)\nLanguage                                 : English\nSubtitles                                : English\nHardcoded                                : No\n\nScreens. &lt;a href=&quot; http://bayimg.com/IaAMlAagO&quot; rel=&quot;nofollow&quot; target=&quot;_NEW&quot;&gt; http://bayimg.com/IaAMlAagO&lt;/a&gt;\n\nIMDB. &lt;a href=&quot; http://www.imdb.com/title/tt0080117/&quot; rel=&quot;nofollow&quot; target=&quot;_NEW&quot;&gt; http://www.imdb.com/title/tt0080117/&lt;/a&gt;\n\nStoryline.\nSet against the urban jungle of 1963 New York's gangland subculture, this coming of age teenage movie is set around the Italian gang the Wanderers. Slight comedy, slight High School angst and every bit entertaining with its classic 1950's Rock n' Roll soundtrack such as &quot;Walk Like a Man&quot;, &quot;Big Girls Don't Cry&quot; by The Four Seasons and &quot;My Boyfriend's Back&quot; by The Angels. Focusing around a football game where the different gangs play with and against each other, then at its grand finale, come together in a mass of union to defend their honour and their turf. Nostalgic stuff and above all a Rock n' Roll retrospective on a grand musical era. Timeless.\n\nEnjoy.","torrent":{"xt":"urn:btih:2424f665c6182e06351204abbe74696a698f8224","amp;dn":"The.Wanderers.1979.1080p.BDRip.x264.Iou1","amp;tr":["udp%3A%2F%2Ftracker.openbittorrent.com%3A80","udp%3A%2F%2Fopen.demonii.com%3A1337","udp%3A%2F%2Ftracker.coppersurfer.tk%3A6969","udp%3A%2F%2Fexodus.desync.com%3A6969"],"infoHash":"2424f665c6182e06351204abbe74696a698f8224","infoHashBuffer":{"type":"Buffer","data":[36,36,246,101,198,24,46,6,53,18,4,171,190,116,105,106,105,143,130,36]},"announce":[],"urlList":[]}}